<?xml version="1.0" encoding="utf-8"?>
<!-- Generator: Adobe Illustrator 25.4.1, SVG Export Plug-In . SVG Version: 6.00 Build 0)  -->
<svg version="1.1" xmlns="http://www.w3.org/2000/svg" xmlns:xlink="http://www.w3.org/1999/xlink" x="0px" y="0px"
	 viewBox="0 0 20.28 22.63" style="enable-background:new 0 0 20.28 22.63;" xml:space="preserve">
<style type="text/css">
	.st0{fill:#FFFFFF;}
	.st1{fill:#BC3827;}
	.st2{fill:none;stroke:#606060;stroke-miterlimit:10;}
	.st3{fill:url(#SVGID_1_);}
	.st4{fill:none;stroke:#BC3827;stroke-miterlimit:10;}
	.st5{fill:url(#SVGID_00000010310897414554751720000005530643645547103128_);}
	.st6{fill:#EFEFEF;}
	.st7{fill:url(#SVGID_00000172416888467862744600000000087453414591112839_);}
	.st8{fill:url(#SVGID_00000078723412306372869580000005099797594153228453_);}
	.st9{fill:url(#SVGID_00000067203869401982654880000010539692118181551500_);}
	.st10{fill:#440C0A;}
	.st11{clip-path:url(#SVGID_00000160189550248632583410000015268634514576228270_);}
	.st12{fill:url(#SVGID_00000122713221367705284320000018321392057223650194_);}
	.st13{fill:url(#SVGID_00000016047059144442552960000007448393628542314633_);}
	.st14{fill:#F17E80;}
	.st15{opacity:0.7;fill:#FFFFFF;}
	.st16{fill:none;stroke:#233239;stroke-linecap:round;stroke-linejoin:round;stroke-miterlimit:10;}
	.st17{fill:none;stroke:#233239;stroke-linecap:round;stroke-miterlimit:10;}
	.st18{fill:#233239;stroke:#233239;stroke-linecap:round;stroke-miterlimit:10;}
	.st19{fill:#FFFFFF;stroke:#233239;stroke-miterlimit:10;}
	.st20{fill:none;stroke:#233239;stroke-miterlimit:10;}
	.st21{fill:#233239;stroke:#233239;stroke-miterlimit:10;}
	.st22{fill:#75E6A4;}
	.st23{fill:#233239;}
	.st24{fill:#FFFFFF;stroke:#3A2C08;stroke-miterlimit:10;}
	.st25{fill:none;stroke:#3A2C08;stroke-miterlimit:10;}
	.st26{fill:#F26D1E;stroke:#3A2C08;stroke-linecap:round;stroke-linejoin:round;stroke-miterlimit:10;}
	.st27{fill:#F60052;stroke:#3B241A;stroke-linecap:round;stroke-linejoin:round;stroke-miterlimit:10;}
	.st28{opacity:0.67;fill:#FFFFFF;stroke:#3B241A;stroke-linecap:round;stroke-linejoin:round;stroke-miterlimit:10;}
	.st29{fill:none;stroke:#3B241A;stroke-linecap:round;stroke-linejoin:round;stroke-miterlimit:10;}
	.st30{fill:none;stroke:#3B241A;stroke-miterlimit:10;}
	.st31{fill:#F36480;stroke:#3B251B;stroke-linecap:round;stroke-linejoin:round;stroke-miterlimit:10;}
	.st32{opacity:0.67;fill:#FFFFFF;stroke:#3B251B;stroke-linecap:round;stroke-linejoin:round;stroke-miterlimit:10;}
	.st33{fill:none;stroke:#3B251B;stroke-linecap:round;stroke-linejoin:round;stroke-miterlimit:10;}
	.st34{fill:none;stroke:#3B251B;stroke-miterlimit:10;}
	.st35{fill:#F6001C;stroke:#3B2618;stroke-linecap:round;stroke-linejoin:round;stroke-miterlimit:10;}
	.st36{opacity:0.36;fill:#FFFFFF;stroke:#3B2618;stroke-linecap:round;stroke-linejoin:round;stroke-miterlimit:10;}
	.st37{fill:none;stroke:#3B2618;stroke-linecap:round;stroke-linejoin:round;stroke-miterlimit:10;}
	.st38{fill:none;stroke:#3B2618;stroke-miterlimit:10;}
	.st39{fill:#FFFFFF;stroke:#3C1800;stroke-miterlimit:10;}
	.st40{fill:#F60000;}
	.st41{opacity:0.77;fill:#FFFFFF;}
	.st42{fill:none;stroke:#3C1800;stroke-miterlimit:10;}
	.st43{fill:#F60000;stroke:#3C1800;stroke-linecap:round;stroke-linejoin:round;stroke-miterlimit:10;}
	.st44{fill:none;stroke:#BC3827;stroke-width:6;stroke-linecap:round;stroke-linejoin:bevel;stroke-miterlimit:10;}
	.st45{opacity:0.71;fill:#BC3827;}
	.st46{clip-path:url(#SVGID_00000160898537685933643830000013150014743689104825_);}
	.st47{fill:#606060;}
	.st48{fill:url(#SVGID_00000181766992242981359200000006904775459377701768_);}
	.st49{fill:none;stroke:#BC3827;stroke-width:10;stroke-linecap:round;stroke-linejoin:round;stroke-miterlimit:10;}
	.st50{fill:url(#SVGID_00000031889090969170192040000017100252297504209824_);}
	.st51{fill:url(#SVGID_00000144299311227313194420000001224511922800743047_);}
	.st52{fill:#FFFFFF;stroke:#606060;stroke-miterlimit:10;}
	.st53{fill:none;stroke:#606060;stroke-width:3;stroke-linecap:round;stroke-miterlimit:10;}
	.st54{fill:url(#SVGID_00000026843978528043565520000000383261818799001273_);}
	.st55{fill:none;stroke:#BC3827;stroke-linecap:round;stroke-miterlimit:10;}
	.st56{fill:none;stroke:#BC3827;stroke-linecap:round;stroke-linejoin:round;stroke-miterlimit:10;}
	.st57{fill:none;stroke:#FFFFFF;stroke-width:4;stroke-linecap:round;stroke-linejoin:round;stroke-miterlimit:10;}
	.st58{fill:url(#SVGID_00000181804721357649676810000003557031346023815091_);}
	.st59{fill:url(#SVGID_00000121264283976957316230000016239592386200493753_);}
	.st60{fill:url(#SVGID_00000029759175933116188520000006214209997890129541_);}
	.st61{fill:none;stroke:#FFFFFF;stroke-miterlimit:10;}
	.st62{fill:url(#SVGID_00000014592183917430090340000014333121124914709632_);}
	.st63{fill:url(#SVGID_00000012465972359217463390000016801629654196815267_);}
	.st64{fill:none;stroke:url(#SVGID_00000183206926173452566250000002957045014134637213_);stroke-width:2;stroke-miterlimit:10;}
	.st65{fill:#E2E2E2;}
	.st66{fill:#009900;}
	.st67{fill:none;stroke:url(#SVGID_00000176739439377604498200000012495917087158861746_);stroke-miterlimit:10;}
	.st68{fill:none;stroke:url(#SVGID_00000130637996710111593850000005586355565938862502_);stroke-miterlimit:10;}
	.st69{fill:none;stroke:url(#SVGID_00000095328492859964819590000003396735152180736162_);stroke-miterlimit:10;}
	.st70{fill:none;stroke:url(#SVGID_00000127765916091298046940000017566845213766711470_);stroke-miterlimit:10;}
	.st71{fill:none;stroke:url(#SVGID_00000075141002642395435320000015279823521380280491_);stroke-miterlimit:10;}
	.st72{fill:none;stroke:url(#SVGID_00000112618854703533664680000006820385323374251398_);stroke-miterlimit:10;}
	.st73{fill:none;stroke:url(#SVGID_00000075841060513628363110000005377075205564986804_);stroke-miterlimit:10;}
	.st74{fill:url(#SVGID_00000058591738361308727080000017782219516571321227_);}
	.st75{fill:none;stroke:url(#SVGID_00000158014378581333948570000016332012633646233254_);stroke-miterlimit:10;}
	.st76{fill:none;stroke:url(#SVGID_00000004515364830723612620000008350344360910650781_);stroke-miterlimit:10;}
	.st77{fill:none;stroke:url(#SVGID_00000044142785587958127910000011857436842425875386_);stroke-miterlimit:10;}
	.st78{fill:url(#SVGID_00000175322564005277917020000012538062508810187963_);}
	.st79{fill:none;stroke:url(#SVGID_00000145773550716099653040000000667151944964473217_);stroke-miterlimit:10;}
	.st80{fill:none;stroke:url(#SVGID_00000057861553438558301270000003135730826711601035_);stroke-miterlimit:10;}
	.st81{fill:none;stroke:url(#SVGID_00000180361000549757091900000016939440616024309429_);stroke-miterlimit:10;}
	.st82{fill:url(#SVGID_00000103237002278085830160000009603811451293303178_);}
	.st83{fill-rule:evenodd;clip-rule:evenodd;fill:#D50012;}
	.st84{fill-rule:evenodd;clip-rule:evenodd;}
	.st85{fill-rule:evenodd;clip-rule:evenodd;fill:#FFFFFF;}
	.st86{fill:url(#SVGID_00000008871138158980131540000017288435273258565292_);}
	.st87{fill:none;stroke:#5B2C91;stroke-miterlimit:10;}
	.st88{fill:url(#SVGID_00000105418672794891092140000010993617764216693662_);}
	.st89{fill:none;stroke:url(#SVGID_00000169550788768371433150000003269436638977804420_);stroke-miterlimit:10;}
	.st90{opacity:0.54;}
	.st91{fill:none;stroke:url(#SVGID_00000042738308583720066450000014414774682504621991_);stroke-miterlimit:10;}
	.st92{opacity:0.43;}
	.st93{fill:url(#SVGID_00000117662658927002368690000003828988086263388342_);}
	.st94{fill:none;stroke:url(#SVGID_00000083058891553365032550000002603051605027811768_);stroke-miterlimit:10;}
	.st95{opacity:0.7;}
	.st96{fill:url(#SVGID_00000081606891404088554020000014114617317207367313_);}
	.st97{fill:url(#SVGID_00000151501485242705570000000006381193851204040859_);}
	.st98{fill:none;stroke:url(#SVGID_00000050633782428370738240000006940645024736904856_);stroke-miterlimit:10;}
	.st99{fill:url(#SVGID_00000066511377278903332670000011317419990702401437_);}
	.st100{fill:none;stroke:url(#SVGID_00000014609457445205971060000001193149923143436734_);stroke-miterlimit:10;}
	.st101{fill:url(#SVGID_00000147179466693922242520000011074001653712854144_);}
	.st102{fill:#E72105;}
	.st103{clip-path:url(#SVGID_00000084512169224586717140000003344391379280540089_);}
	.st104{fill:#FFFFFF;stroke:#BC3827;stroke-linecap:round;stroke-linejoin:round;stroke-miterlimit:10;}
	.st105{fill:#FFFFFF;stroke:#233239;stroke-linecap:round;stroke-linejoin:round;stroke-miterlimit:10;}
	.st106{fill:#FFFFFF;stroke:#233239;stroke-width:0.5;stroke-miterlimit:10;}
	.st107{fill:url(#SVGID_00000120535653816840513820000016582155758609686423_);stroke:#FFFFFF;stroke-miterlimit:10;}
	.st108{fill:url(#SVGID_00000106857278630888260330000010160019445560074655_);stroke:#FFFFFF;stroke-miterlimit:10;}
	.st109{fill:#919191;stroke:#233239;stroke-linecap:round;stroke-linejoin:round;stroke-miterlimit:10;}
	.st110{fill:url(#SVGID_00000142167551749370241290000001782296522800948640_);}
	.st111{fill:url(#SVGID_00000180359054358026096160000006186323990291559575_);}
	.st112{fill:none;stroke:url(#SVGID_00000084527793437524665850000017535091988081673618_);stroke-miterlimit:10;}
	.st113{fill:none;stroke:url(#SVGID_00000176723251758315250560000011228172541924246917_);stroke-miterlimit:10;}
	.st114{fill:none;stroke:url(#SVGID_00000043437284377377934500000013131191388133570434_);stroke-miterlimit:10;}
	.st115{fill:#CBCBCB;}
	.st116{fill:url(#SVGID_00000170244241805940875770000001697510413859869114_);}
	.st117{fill:#520002;}
	.st118{fill:none;stroke:#520002;stroke-miterlimit:10;}
</style>
<g id="Layer_1">
</g>
<g id="Layer_2">
</g>
<g id="Layer_3">
	<g>
		<g>
			<path class="st1" d="M12.95,0.4C10.97-0.18,8.8-0.12,6.89,0.54C4.9,1.2,3.2,2.45,1.96,4.15C0.68,5.89,0,7.96,0,10.14
				c0,2.33,0.81,4.6,2.28,6.41l0.02,0.02c0,0,0,0,0,0l0.01,0.01c0.32,0.48,0.72,0.93,1.17,1.34c0.71,0.64,0.95,1.63,0.59,2.47
				L3.1,22.63l4-2.09c0.55-0.28,1.22-0.39,1.94-0.31c0.36,0.04,0.73,0.06,1.1,0.06c1.09,0,2.16-0.17,3.18-0.51
				c4.17-1.37,6.96-5.24,6.96-9.63C20.28,5.64,17.27,1.63,12.95,0.4z M13.2,19.4c-0.98,0.33-2.01,0.49-3.05,0.49
				c-0.36,0-0.72-0.02-1.06-0.06c-0.8-0.09-1.55,0.04-2.17,0.36l-3.02,1.58l0.53-1.24c0.42-0.99,0.15-2.16-0.69-2.91
				c-0.43-0.38-0.8-0.81-1.1-1.26l-0.02-0.02L2.6,16.32c-1.43-1.74-2.21-3.93-2.21-6.18c0-2.09,0.65-4.09,1.89-5.76
				C3.47,2.75,5.1,1.55,7.01,0.91c1.84-0.64,3.93-0.69,5.83-0.14c4.15,1.19,7.05,5.04,7.05,9.37C19.89,14.36,17.2,18.08,13.2,19.4z"
				/>
			<path class="st1" d="M13.69,11.27L12.82,11c-0.37-0.12-0.77-0.02-1.05,0.26c-0.22,0.22-0.57,0.25-0.83,0.08
				c-0.41-0.28-0.79-0.59-1.14-0.94c-0.35-0.35-0.67-0.74-0.95-1.15C8.67,8.98,8.7,8.62,8.92,8.4C9.2,8.13,9.3,7.72,9.18,7.35
				L8.89,6.47C8.76,6.04,8.36,5.75,7.9,5.75H6.91c-0.32,0-0.62,0.14-0.82,0.4C5.9,6.39,5.83,6.71,5.9,7.01
				c0.83,3.58,3.68,6.43,7.25,7.27c0.08,0.02,0.16,0.03,0.23,0.03c0.23,0,0.45-0.08,0.64-0.22c0.25-0.2,0.4-0.5,0.4-0.82v-1
				C14.41,11.81,14.12,11.41,13.69,11.27z M14.02,13.26c0,0.2-0.09,0.39-0.25,0.51c-0.15,0.12-0.35,0.17-0.54,0.12
				c-3.43-0.8-6.17-3.54-6.96-6.98c-0.04-0.19,0-0.38,0.12-0.54c0.13-0.16,0.31-0.25,0.51-0.25H7.9c0.28,0,0.53,0.18,0.62,0.45
				l0.28,0.88C8.88,7.7,8.82,7.95,8.65,8.13c-0.35,0.35-0.4,0.91-0.12,1.33c0.29,0.43,0.63,0.83,0.99,1.2
				c0.37,0.37,0.77,0.7,1.2,0.99c0.42,0.28,0.97,0.23,1.32-0.12c0.17-0.17,0.42-0.23,0.66-0.16l0.87,0.27
				c0.27,0.09,0.45,0.33,0.45,0.62V13.26z"/>
		</g>
	</g>
</g>
<g id="Layer_4">
</g>
<g id="Layer_5">
</g>
<g id="Layer_6">
</g>
<g id="Layer_7">
</g>
<g id="Layer_8">
</g>
<g id="Layer_9">
</g>
<g id="Layer_10">
</g>
</svg>
